# xmcd
#
# Track frame offsets: 
#        183
#        13145
#        23745
#        34733
#        45733
#        61058
#        76283
#        88070
#        102508
#        116783
#        129395
#        143358
#        155283
#        165845
#        180895
#        195383
#
# Disc length: 2778 seconds
#
# Revision: 1
# Processed by: cddbd v1.5.2PL0 Copyright (c) Steve Scherf et al.
# Submitted via: ExactAudioCopyFreeDBPlugin 1.0
#
DISCID=b90ad810
DTITLE=Various Artist - Laendler Super-Hitparade 1 
DYEAR=1996
DGENRE=Ländler
TTITLE0=Steiner-Chilbi
TTITLE1=Stimmig idr Obstmülli
TTITLE2=De Seppel
TTITLE3=Frieda's Traum
TTITLE4=Im chline Hüsli
TTITLE5=Berewegge, Chäs ond Brot
TTITLE6=Klarinetten-Muckl
TTITLE7=s'Toggeburg ab
TTITLE8=Im Oergelihuus
TTITLE9=Chatzebüsi-Ländler
TTITLE10=Ferieplausch i de Biberegg
TTITLE11=Männertreu
TTITLE12=Föhnsturm
TTITLE13=Dudelsack
TTITLE14=Poscht isch da
TTITLE15=Rond om de Säntis
EXTD=
EXTT0=
EXTT1=
EXTT2=
EXTT3=
EXTT4=
EXTT5=
EXTT6=
EXTT7=
EXTT8=
EXTT9=
EXTT10=
EXTT11=
EXTT12=
EXTT13=
EXTT14=
EXTT15=
PLAYORDER=
